<svg xmlns="http://www.w3.org/2000/svg" width="64" height="64" viewBox="0 0 64 64">
  <rect width="64" height="64" rx="15" fill="#F2AF36"/>
  <g fill="none" stroke="#2D2F3D" stroke-width="3.4" stroke-linecap="round" stroke-linejoin="round">
    <path d="M16 41 L23 15 L31 33 Q32 35 33 33 L41 15 L48 41"/>
    <path d="M25 45 Q13 43 8 46"/>
    <path d="M25 50 Q14 53 9 58"/>
    <path d="M39 45 Q51 43 56 46"/>
    <path d="M39 50 Q50 53 55 58"/>
    <path d="M24 52 Q32 61 40 52"/>
  </g>
  <circle cx="26" cy="41" r="2.4" fill="#2D2F3D"/>
  <circle cx="38" cy="41" r="2.4" fill="#2D2F3D"/>
  <path d="M30 46 Q32 50 34 46 Q32 48.5 30 46 Z" fill="#2D2F3D"/>
</svg>
